PathFileType	4	(X/Y/Z)	C:/Users/beibeiliu/ov580/test_trc/User2\sequence.29_training_dense_right.trc
DataRate	CameraRate	NumFrames	NumMarkers	Units	OrigDataRate	OrigDataStartFrame	OrigNumFrames
120	120	12	19	mm	120	1	78
Frame#	Time	ThumbCMC			ThumbMCP			ThumbIP			ThumbTip			IndexMCP			IndexPIP			IndexTip			MiddleMCP			MiddlePIP			MiddleTip			RingMCP			RingPIP			RingTip			PinkyMCP			PinkyPIP			PinkyTip			BackHand1			BackHand2			BackHand3	
		X0	Y0	Z0	X1	Y1	Z1	X2	Y2	Z2	X3	Y3	Z3	X4	Y4	Z4	X5	Y5	Z5	X6	Y6	Z6	X7	Y7	Z7	X8	Y8	Z8	X9	Y9	Z9	X10	Y10	Z10	X11	Y11	Z11	X12	Y12	Z12	X13	Y13	Z13	X14	Y14	Z14	X15	Y15	Z15	X16	Y16	Z16	X17	Y17	Z17	X18	Y18	Z18	
0	0	130.893	51.8207	-32.1587	114.643	75.4034	-62.2865	89.4867	82.9166	-88.2248	67.6231	83.6199	-102.156	95.2534	26.3528	-101.44	75.6745	49.8288	-117.741	64.8762	75.2696	-121.439	72.514	18.308	-96.8956	57.0582	45.569	-115.481	42.8325	80.3682	-111.692	55.4535	16.6673	-86.0159	40.4031	40.2421	-102.28	34.0525	74.3079	-101.331	45.049	15.7814	-66.2726	29.4718	35.4488	-85.7689	23.0829	60.7696	-93.5099	86.3382	-1.2745	-32.2666	102.462	-1.19811	-0.518147	125.087	9.33356	-29.7481	
1	0.00833333	136.942	40.3719	-44.1591	119.169	57.6934	-68.4235	93.5852	58.9943	-98.7237	73.2819	59.4677	-113.896	110.743	5.95739	-106.981	90.9602	24.8819	-128.026	70.8619	49.9234	-129.034	92.8488	-4.74249	-103.693	70.0012	20.5666	-126.018	51.8947	51.3642	-125.141	72.7557	-8.15969	-95.9928	51.8393	7.42966	-108.686	45.2443	43.3536	-114.055	60.537	-9.48139	-73.3115	42.3793	6.72887	-95.8883	37.4081	32.643	-107.147	101.476	-17.8289	-36.7854	114.279	-12.5528	-4.63842	138.133	-3.21769	-36.0227	
2	0.0166667	146.175	37.8066	-45.1214	124.771	46.8685	-76.8925	102.741	45.9743	-107.561	82.6754	36.0781	-120.478	127.489	-5.77	-111.354	110.457	8.71441	-132.49	85.7189	29.4316	-136.111	109.568	-18.219	-112.824	88.2658	1.07651	-133.694	64.5387	30.0882	-135.301	90.6713	-26.7977	-100.096	74.3085	-11.9401	-118.475	59.5088	20.0162	-122.918	78.4075	-28.3789	-82.1982	60.5957	-15.5944	-102.411	52.3006	5.63808	-116.494	116.617	-29.1317	-41.3162	124.321	-22.5374	-9.34139	150.149	-8.85821	-35.9469	
3	0.025	148.605	41.9026	-47.5356	129.175	50.622	-78.1199	110.66	39.6253	-111.744	94.4165	25.4707	-127.98	151.852	1.74489	-113.15	126.861	13.0886	-136.479	99.4763	24.499	-140.072	135.34	-20.2775	-114.839	109.452	-5.25404	-139.09	81.658	14.9249	-141.745	121.237	-30.669	-109.826	98.4788	-18.5899	-129.061	79.5921	8.03406	-131.059	107.344	-37.1519	-90.3204	90.4464	-28.4807	-111.63	72.924	-6.69167	-128.284	142.708	-29.3642	-46.4251	140.587	-20.6447	-11.4582	166.379	0.639162	-40.5811	
4	0.0333333	141.512	51.2178	-44.5453	122.133	53.3892	-75.4297	112.112	41.934	-110.861	106.744	20.7619	-129.626	164.645	25.0343	-114.353	143.531	29.5833	-135.205	111.747	27.0954	-140.58	165.158	4.23557	-114.777	134.461	7.32967	-142.373	103.05	12.8686	-148.376	154.652	-16.2069	-110.509	129.429	-10.1852	-135.406	98.6066	2.93663	-137.742	142.338	-33.4261	-96.6756	122.204	-26.5154	-124.186	99.5005	-13.4992	-135.305	166.903	-15.61	-47.2607	161.104	-17.0714	-14.3573	172.655	16.1036	-33.9589	
5	0.0416667	129.343	52.4824	-42.1959	112.91	49.6474	-72.9373	107.351	40.003	-105.766	112.225	21.4293	-127.67	163.736	50.2046	-108.145	143.183	40.6627	-131.827	112.176	35.0813	-141.389	173.432	24.981	-111.963	148.832	19.4454	-140.183	116.289	15.1498	-149.361	170.593	5.26265	-113.587	149.948	-0.761183	-135.537	117.92	4.2492	-139.395	165.603	-18.9069	-102.858	148.56	-15.8533	-124.434	119.693	-13.1727	-140.887	180.339	-1.77365	-49.2383	171.704	-2.15284	-17.2124	172.437	32.8223	-33.6643	
6	0.05	118.457	48.1459	-38.0783	101.57	48.146	-71.7278	102.467	40.7426	-109.935	113.966	24.82	-131.197	154.754	64.4199	-101.634	135.055	56.6463	-127.261	115.473	35.3082	-138.532	170.001	47.8375	-107.486	149.475	37.4762	-136.236	120.251	21.1533	-149.078	177.054	22.7468	-110.764	158.325	15.6535	-134.072	127.624	8.68208	-141.407	177.377	3.26098	-98.5876	159.59	-2.14051	-126.764	132.436	-3.11865	-141.318	181.735	18.1517	-42.5415	171.298	10.0975	-12.8193	162.41	45.4917	-27.6668	
7	0.0583333	104.3	46.1324	-29.4828	92.5916	47.0665	-67.6254	96.5016	44.9462	-104.62	113.749	37.2963	-128.683	138.073	82.6736	-91.6698	124.157	68.2467	-119.452	106.133	47.2137	-134.447	159.152	68.3419	-100.064	141.598	58.5171	-130.224	117.633	33.5586	-147.645	171.392	47.3383	-104.796	155.968	38.9279	-130.244	127.838	29.4446	-139.827	178.113	27.6763	-93.5109	163.965	25.2648	-121.024	140.2	17.2276	-140.885	177.268	38.675	-39.8155	167.695	20.0856	-7.35154	147.738	55.2029	-16.6267	
8	0.0666667	95.8854	47.6565	-26.4415	79.59	48.2207	-60.3805	83.135	50.6659	-95.0521	97.3768	49.3516	-121.649	117.674	93.8278	-80.9818	104.107	84.9433	-108.141	93.3971	63.6357	-124.303	141.248	87.107	-88.7977	123.298	77.1628	-122.864	106.099	57.8168	-138.453	154.54	71.2767	-92.4592	140.695	64.9083	-120.45	113.951	46.1076	-136.446	166.129	49.7465	-90.8239	148.92	48.9211	-117.397	131.714	37.7388	-135.257	167.766	49.7659	-34.3642	162.504	29.4377	-7.81989	135.774	58.3524	-9.90667	
9	0.075	77.6206	43.9704	-16.4513	62.625	45.1746	-54.4919	61.5241	50.1995	-88.7346	76.4095	52.9898	-116.405	94.54	96.7344	-74.0433	77.8326	89.4914	-96.7981	67.3871	63.8011	-117.667	112.636	95.5206	-84.1588	96.8767	83.9633	-116.245	80.1632	63.3714	-133.089	132.34	79.2317	-88.8295	116.228	74.4448	-115.51	91.9207	54.7113	-130.248	146.692	58.1442	-89.9269	127.98	57.6307	-114.803	106.038	49.3667	-130.447	145.194	55.1975	-30.6876	149.19	34.9115	-8.26665	122.333	60.1249	-5.05254	
10	0.0833333	64.3305	37.6202	-15.8892	44.0995	36.6461	-52.2999	40.4785	38.2554	-87.8605	58.1877	40.224	-113.387	71.1773	88.6092	-69.6586	53.4698	75.4237	-98.4766	48.8293	51.8004	-114.521	91.4737	85.1257	-84.7211	77.256	74.3041	-114.31	59.1748	48.2374	-130.769	109.997	72.2922	-93.2043	94.2712	64.7971	-116.728	70.9926	42.9988	-128.161	125.551	51.3329	-90.6267	105.699	49.0041	-113.717	81.654	36.0252	-129.623	127.795	50.9502	-29.6322	133.538	31.9405	-3.54127	102.975	54.7635	-5.34642	
11	0.0916667	46.3995	21.6682	-11.4236	32.2334	17.5755	-47.2851	27.9633	18.1259	-88.0063	44.6301	18.0544	-112.952	48.6954	68.5882	-76.0728	37.1142	51.4999	-101.82	28.8983	22.3702	-112.95	70.5524	66.6561	-85.3414	56.0095	49.431	-117.506	38.9752	21.6216	-129.642	90.7115	54.2699	-95.2964	76.7127	41.0772	-118.551	52.4999	15.2882	-125.498	102.685	37.3936	-91.8304	86.5963	25.7974	-116.375	67.3053	8.41956	-126.577	111.7	43.8192	-35.6195	116.447	26.4049	-4.45418	81.2745	49.5029	-8.77535	
